# xmcd
#
# Track frame offsets:
#	150
#	19659
#	40077
#	65968
#	81361
#	104274
#	127189
#	153469
#	167052
#	181031
#
# Disc length: 2767 seconds
# Revision: 0
# Processed by: cddbd v1.5.2PL0 Copyright (c) Steve Scherf et al.
# Submitted via: dBpowerAMP V12.0
#
DISCID=820acd0a
DTITLE=Snyder Family Band - The Life We Know
DYEAR=2017
DGENRE=Country
TTITLE0=Cowboy Man
TTITLE1=Far Away
TTITLE2=Clouds Over Texas
TTITLE3=The Rain
TTITLE4=The Mystery
TTITLE5=The King
TTITLE6=Blue Ridge Mountain Sky
TTITLE7=Who's Malloy?
TTITLE8=Breakin' Loose
TTITLE9=American Prayer
EXTD=
EXTT0=
EXTT1=
EXTT2=
EXTT3=
EXTT4=
EXTT5=
EXTT6=
EXTT7=
EXTT8=
EXTT9=
PLAYORDER=
